<?xml version="1.0" encoding="UTF-8"?>
<svg id="Layer_1" data-name="Layer 1" xmlns="http://www.w3.org/2000/svg" viewBox="0 0 1080 1080">
  <defs>
    <style>
      .cls-1 {
        fill: #fe4e01;
      }
    </style>
  </defs>
  <path class="cls-1" d="M524.56,540c0,36.1,12.95,69.18,34.53,94.83-27.06,32.24-67.68,52.74-113.07,52.74-81.51,0-147.6-66.07-147.6-147.57s66.08-147.57,147.6-147.57c45.38,0,86.01,20.48,113.07,52.73-21.58,25.65-34.53,58.73-34.53,94.84Z"/>
  <path class="cls-1" d="M771.58,430.96v218.06c-26.23,23.97-61.13,38.55-99.44,38.55-45.4,0-86.02-20.5-113.05-52.74,21.55-25.65,34.5-58.73,34.5-94.83s-12.95-69.19-34.5-94.84c27.03-32.24,67.65-52.73,113.05-52.73,38.3,0,73.21,14.58,99.44,38.53Z"/>
</svg>