<svg width="817" height="183" viewBox="0 0 817 183" fill="none" xmlns="http://www.w3.org/2000/svg">
<g clip-path="url(#clip0_119_139)">
<path d="M80.3599 71.9202C80.3599 84.6802 84.9399 96.3702 92.5699 105.44C82.9999 116.84 68.6399 124.08 52.5999 124.08C23.7799 124.08 0.419922 100.72 0.419922 71.9102C0.419922 43.1002 23.7799 19.7402 52.5999 19.7402C68.6399 19.7402 82.9999 26.9802 92.5699 38.3802C84.9399 47.4502 80.3599 59.1402 80.3599 71.9102V71.9202Z" fill="white"/>
<path d="M167.69 33.37V110.45C158.42 118.92 146.08 124.08 132.54 124.08C116.49 124.08 102.13 116.83 92.5801 105.44C100.2 96.37 104.78 84.68 104.78 71.92C104.78 59.16 100.2 47.46 92.5801 38.39C102.14 26.99 116.5 19.75 132.54 19.75C146.08 19.75 158.42 24.9 167.69 33.37Z" fill="white"/>
<path d="M761.761 121.5C744.281 121.5 733.051 108.66 733.051 91.3597C733.051 74.0597 744.291 62.2898 761.761 62.2898C779.231 62.2898 790.651 74.0597 790.651 91.3597C790.651 108.66 780.661 121.5 761.761 121.5ZM677.581 29.8297C686.681 29.8297 692.921 23.9398 692.921 14.8498C692.921 5.75976 686.681 -0.490234 677.581 -0.490234C668.481 -0.490234 662.421 5.74976 662.421 14.8498C662.421 23.9498 668.481 29.8297 677.581 29.8297ZM665.451 141.47H689.881V43.3798H665.451V141.47ZM591.611 141.47H617.651V27.3297H652.251V2.35974H557.191V27.3297H591.611V141.47ZM492.451 83.1498C494.591 70.6698 504.041 61.0398 519.921 61.0398C530.261 61.0398 542.751 65.8598 545.961 83.1498H492.461H492.451ZM522.771 144.33C541.671 144.33 555.411 137.91 564.681 125.78L545.951 112.58C540.781 119 533.111 122.39 523.301 122.39C507.071 122.39 496.901 115.43 493.691 101.7H570.201C570.741 98.3098 571.091 94.9198 571.091 91.8898C571.091 62.2798 550.581 39.4597 520.801 39.4597C491.021 39.4597 468.371 61.5698 468.371 91.8898C468.371 122.21 489.241 144.32 522.771 144.32V144.33ZM338.721 29.8297C347.821 29.8297 354.061 23.9398 354.061 14.8498C354.061 5.75976 347.821 -0.490234 338.721 -0.490234C329.621 -0.490234 323.561 5.74976 323.561 14.8498C323.561 23.9498 329.621 29.8297 338.721 29.8297ZM401.321 141.47H430.031L467.661 43.3798H440.911L415.761 114.18L390.431 43.3798H363.681L401.311 141.47H401.321ZM326.591 141.47H351.021V43.3798H326.591V141.47ZM236.711 141.47H311.441V116.5H262.751V2.35974H236.711V141.47ZM710.391 182.49H734.821V128.99C742.671 139.16 754.081 144.33 768.351 144.33C794.751 144.33 816.681 121.86 816.681 91.8998C816.681 61.9398 795.101 39.4698 768.351 39.4698C753.551 39.4698 742.491 44.8198 734.821 55.8798V43.3997H710.391V182.51V182.49Z" fill="white"/>
</g>
<defs>
<clipPath id="clip0_119_139">
<rect width="817" height="183" fill="white"/>
</clipPath>
</defs>
</svg>
