<?xml version="1.0" encoding="UTF-8"?>
<svg id="Layer_1" data-name="Layer 1" xmlns="http://www.w3.org/2000/svg" viewBox="0 0 1080 1080">
  <defs>
    <style>
      .cls-1 {
        fill: #fe4e01;
      }
    </style>
  </defs>
  <g>
    <path class="cls-1" d="M199.36,520.92c0,12.76,4.58,24.45,12.21,33.52-9.57,11.4-23.93,18.64-39.97,18.64-28.82,0-52.18-23.36-52.18-52.17s23.36-52.17,52.18-52.17c16.04,0,30.4,7.24,39.97,18.64-7.63,9.07-12.21,20.76-12.21,33.53Z"/>
    <path class="cls-1" d="M286.69,482.37v77.08c-9.27,8.47-21.61,13.63-35.15,13.63-16.05,0-30.41-7.25-39.96-18.64,7.62-9.07,12.2-20.76,12.2-33.52s-4.58-24.46-12.2-33.53c9.56-11.4,23.92-18.64,39.96-18.64,13.54,0,25.88,5.15,35.15,13.62Z"/>
  </g>
  <path class="cls-1" d="M880.76,570.5c-17.48,0-28.71-12.84-28.71-30.14s11.24-29.07,28.71-29.07,28.89,11.77,28.89,29.07-9.99,30.14-28.89,30.14ZM796.58,478.83c9.1,0,15.34-5.89,15.34-14.98s-6.24-15.34-15.34-15.34-15.16,6.24-15.16,15.34,6.06,14.98,15.16,14.98ZM784.45,590.47h24.43v-98.09h-24.43v98.09ZM710.61,590.47h26.04v-114.14h34.6v-24.97h-95.06v24.97h34.42v114.14ZM611.45,532.15c2.14-12.48,11.59-22.11,27.47-22.11,10.34,0,22.83,4.82,26.04,22.11h-53.5ZM641.77,593.33c18.9,0,32.64-6.42,41.91-18.55l-18.73-13.2c-5.17,6.42-12.84,9.81-22.65,9.81-16.23,0-26.4-6.96-29.61-20.69h76.51c.54-3.39.89-6.78.89-9.81,0-29.61-20.51-52.43-50.29-52.43s-52.43,22.11-52.43,52.43,20.87,52.43,54.4,52.43ZM457.72,478.83c9.1,0,15.34-5.89,15.34-14.98s-6.24-15.34-15.34-15.34-15.16,6.24-15.16,15.34,6.06,14.98,15.16,14.98ZM520.32,590.47h28.71l37.63-98.09h-26.75l-25.15,70.8-25.33-70.8h-26.75l37.63,98.09ZM445.59,590.47h24.43v-98.09h-24.43v98.09ZM355.71,590.47h74.73v-24.97h-48.69v-114.14h-26.04v139.11ZM829.39,631.49h24.43v-53.5c7.85,10.17,19.26,15.34,33.53,15.34,26.4,0,48.33-22.47,48.33-52.43s-21.58-52.43-48.33-52.43c-14.8,0-25.86,5.35-33.53,16.41v-12.48h-24.43v139.11Z"/>
</svg>