<svg width="817" height="183" viewBox="0 0 817 183" fill="none" xmlns="http://www.w3.org/2000/svg">
<g clip-path="url(#clip0_117_144)">
<path d="M80.3599 71.92C80.3599 84.68 84.9399 96.37 92.5699 105.44C82.9999 116.84 68.6399 124.08 52.5999 124.08C23.7799 124.08 0.419922 100.72 0.419922 71.91C0.419922 43.1 23.7799 19.74 52.5999 19.74C68.6399 19.74 82.9999 26.98 92.5699 38.38C84.9399 47.45 80.3599 59.14 80.3599 71.91V71.92Z" fill="#FE4E01"/>
<path d="M167.69 33.37V110.45C158.42 118.92 146.08 124.08 132.54 124.08C116.49 124.08 102.13 116.83 92.5801 105.44C100.2 96.37 104.78 84.68 104.78 71.92C104.78 59.16 100.2 47.46 92.5801 38.39C102.14 26.99 116.5 19.75 132.54 19.75C146.08 19.75 158.42 24.9 167.69 33.37Z" fill="#FE4E01"/>
<path d="M761.761 121.5C744.281 121.5 733.051 108.66 733.051 91.36C733.051 74.06 744.291 62.29 761.761 62.29C779.231 62.29 790.651 74.06 790.651 91.36C790.651 108.66 780.661 121.5 761.761 121.5ZM677.581 29.83C686.681 29.83 692.921 23.94 692.921 14.85C692.921 5.76001 686.681 -0.48999 677.581 -0.48999C668.481 -0.48999 662.421 5.75001 662.421 14.85C662.421 23.95 668.481 29.83 677.581 29.83ZM665.451 141.47H689.881V43.38H665.451V141.47ZM591.611 141.47H617.651V27.33H652.251V2.35999H557.191V27.33H591.611V141.47ZM492.451 83.15C494.591 70.67 504.041 61.04 519.921 61.04C530.261 61.04 542.751 65.86 545.961 83.15H492.461H492.451ZM522.771 144.33C541.671 144.33 555.411 137.91 564.681 125.78L545.951 112.58C540.781 119 533.111 122.39 523.301 122.39C507.071 122.39 496.901 115.43 493.691 101.7H570.201C570.741 98.31 571.091 94.92 571.091 91.89C571.091 62.28 550.581 39.46 520.801 39.46C491.021 39.46 468.371 61.57 468.371 91.89C468.371 122.21 489.241 144.32 522.771 144.32V144.33ZM338.721 29.83C347.821 29.83 354.061 23.94 354.061 14.85C354.061 5.76001 347.821 -0.48999 338.721 -0.48999C329.621 -0.48999 323.561 5.75001 323.561 14.85C323.561 23.95 329.621 29.83 338.721 29.83ZM401.321 141.47H430.031L467.661 43.38H440.911L415.761 114.18L390.431 43.38H363.681L401.311 141.47H401.321ZM326.591 141.47H351.021V43.38H326.591V141.47ZM236.711 141.47H311.441V116.5H262.751V2.35999H236.711V141.47ZM710.391 182.49H734.821V128.99C742.671 139.16 754.081 144.33 768.351 144.33C794.751 144.33 816.681 121.86 816.681 91.9C816.681 61.94 795.101 39.47 768.351 39.47C753.551 39.47 742.491 44.82 734.821 55.88V43.4H710.391V182.51V182.49Z" fill="#FE4E01"/>
</g>
<defs>
<clipPath id="clip0_117_144">
<rect width="817" height="183" fill="white"/>
</clipPath>
</defs>
</svg>
